# xmcd
#
# Track frame offsets: 
#        150
#        15689
#        21577
#        41353
#        47742
#        69016
#        77443
#        101311
#        127494
#        139990
#        151778
#        177497
#        202401
#        219876
#        229581
#
# Disc length: 3414 seconds
#
# Revision: 0
# Processed by: cddbd v1.5.2PL0 Copyright (c) Steve Scherf et al.
# Submitted via: ExactAudioCopy v1.2
#
DISCID=ca0d540f
DTITLE=Cedell Davis - Even The Devil Gets The Blues
DYEAR=2016
DGENRE=Blues
TTITLE0=Play with Your Poodle
TTITLE1=The Silvertone
TTITLE2=Love Blues (feat. Annie Jantzer and Mike McCready)
TTITLE3=Crap House Bea
TTITLE4=She's Got the Devil in Her (feat. Ayron Jones)
TTITLE5=Can't Be Satisfied
TTITLE6=Kansas City
TTITLE7=Got to Be Movin' On (feat. Annie Jantzer and Mike McCready)
TTITLE8=People of the Mountain
TTITLE9=Dust My Broom
TTITLE10=Cold Chills
TTITLE11=Catfish Blues (feat. Ayron Jones)
TTITLE12=Grandma Grandpa (feat. Scott Mccaughey)
TTITLE13=Ain't Plannin' on Dyin'
TTITLE14=Rollin' and Tumblin' (feat. Annie Jantzer and Mike McCready)
EXTD=
EXTT0=
EXTT1=
EXTT2=
EXTT3=
EXTT4=
EXTT5=
EXTT6=
EXTT7=
EXTT8=
EXTT9=
EXTT10=
EXTT11=
EXTT12=
EXTT13=
EXTT14=
PLAYORDER=
